<svg width="375" height="444" viewBox="0 0 375 444" fill="none" xmlns="http://www.w3.org/2000/svg">
<g opacity="0.05">
<path d="M-5.75026 306.36L100.014 306.36L100.014 413.715C100.014 429.888 113.11 443.067 129.33 443.067L245.066 443.067C261.22 443.067 274.382 429.955 274.382 413.715L274.382 356.011L229.244 356.011L229.244 397.875L145.218 397.875L145.218 180.102L182.312 180.102L182.312 134.91L100.08 134.91L100.08 261.168L10.1377 261.168L10.1377 180.102L55.1423 180.102L55.1423 134.91L-5.68375 134.91C-21.8376 134.91 -35 148.022 -35 164.261L-35 277.008C-35 293.181 -21.9041 306.36 -5.75026 306.36Z" fill="#247CFF"/>
<path d="M145.152 45.2584L229.178 45.2584L229.178 261.168L191.419 261.168L191.419 306.359L274.316 306.359L274.316 180.168L362.862 180.168L362.862 261.168L318.589 261.168L318.589 306.359L378.684 306.359C394.904 306.359 408 293.181 408 277.008L408 164.261C408 148.088 394.904 134.91 378.684 134.91L274.316 134.91L274.316 29.3514C274.316 13.1782 261.22 -1.28319e-05 244.999 -1.425e-05L129.264 -2.43679e-05C113.11 -2.57801e-05 99.9475 13.1116 99.9475 29.3514L99.9475 90.0509L145.085 90.0509L145.085 45.2584L145.152 45.2584Z" fill="#247CFF"/>
</g>
</svg>
